<svg xmlns="http://www.w3.org/2000/svg" width="26" height="26" viewBox="0 0 26 26" fill="none">
  <path fill-rule="evenodd" clip-rule="evenodd" d="M11.9174 4.82713C11.3909 5.48862 10.8003 6.50448 9.95288 7.96818L5.55215 15.5694C4.7017 17.0384 4.11255 18.0603 3.79991 18.849C3.48993 19.6309 3.54357 19.9606 3.66805 20.1766C3.79253 20.3925 4.05099 20.6041 4.88301 20.7276C5.72219 20.8522 6.90181 20.8543 8.59917 20.8543H17.4006C19.098 20.8543 20.2776 20.8522 21.1168 20.7276C21.9488 20.6041 22.2073 20.3925 22.3317 20.1766C22.4562 19.9606 22.5099 19.6309 22.1999 18.849C21.8872 18.0603 21.2981 17.0384 20.4477 15.5694L16.0469 7.96818C15.1995 6.50448 14.6089 5.48862 14.0824 4.82713C13.5607 4.17155 13.2489 4.05371 12.9999 4.05371C12.7509 4.05371 12.4391 4.17155 11.9174 4.82713ZM10.6459 3.81523C11.2701 3.03085 11.9997 2.42871 12.9999 2.42871C14.0001 2.42871 14.7297 3.03085 15.3539 3.81524C15.9645 4.58245 16.6143 5.70479 17.4178 7.09277L17.4178 7.09279L17.4532 7.154L21.854 14.7553L21.8895 14.8165C22.696 16.2097 23.3481 17.3359 23.7105 18.2502C24.0809 19.1845 24.2403 20.1197 23.7395 20.9882C23.2388 21.8568 22.3496 22.1874 21.3554 22.335C20.3826 22.4794 19.0812 22.4794 17.4715 22.4793H17.4714H17.4006H8.59917H8.52841H8.52834C6.91856 22.4794 5.6172 22.4794 4.64438 22.335C3.65016 22.1874 2.76104 21.8568 2.26027 20.9882C1.75951 20.1197 1.91887 19.1845 2.28927 18.2502C2.65171 17.3359 3.30377 16.2097 4.11036 14.8165L4.14583 14.7553L8.54656 7.15399L8.58198 7.0928L8.582 7.09278C9.38553 5.7048 10.0353 4.58245 10.6459 3.81523ZM12.9999 8.93767C13.4486 8.93767 13.8124 9.30144 13.8124 9.75017V14.0835C13.8124 14.5322 13.4486 14.896 12.9999 14.896C12.5512 14.896 12.1874 14.5322 12.1874 14.0835V9.75017C12.1874 9.30144 12.5512 8.93767 12.9999 8.93767ZM12.9999 18.4168C13.5982 18.4168 14.0832 17.9318 14.0832 17.3335C14.0832 16.7352 13.5982 16.2502 12.9999 16.2502C12.4016 16.2502 11.9166 16.7352 11.9166 17.3335C11.9166 17.9318 12.4016 18.4168 12.9999 18.4168Z" fill="#FF1010"/>
</svg>