<svg width="86" height="73" viewBox="0 0 86 73" fill="none" xmlns="http://www.w3.org/2000/svg">
<g id="Group 1000004424">
<path id="Vector" d="M57.4072 13.0773V4.87629C57.4072 2.16108 55.2461 0 52.5309 0H4.87629C2.16108 0 0 2.16108 0 4.87629V13.0773V67.7693C0 70.4845 2.16108 72.6456 4.87629 72.6456H81.1237C83.8389 72.6456 86 70.4845 86 67.7693V17.9536C86 15.2384 83.8389 13.0773 81.1237 13.0773H57.4072Z" fill="#F5F5F5"/>
<path id="Vector_2" d="M49.3306 32.5281L43.4912 38.3338L37.6855 32.5281L34.1953 36.0518L40.0011 41.8576L34.1953 47.6633L37.6855 51.187L43.4912 45.3813L49.3306 51.187L52.8207 47.6633L47.015 41.8576L52.8207 36.0518L49.3306 32.5281Z" fill="#D6D6D6"/>
</g>
</svg>
