<svg xmlns="http://www.w3.org/2000/svg" xmlns:xlink="http://www.w3.org/1999/xlink" width="500" zoomAndPan="magnify" viewBox="0 0 375 374.999991" height="500" preserveAspectRatio="xMidYMid meet" version="1.0"><defs><clipPath id="fdfbcb89ff"><path d="M 154.867188 182.839844 L 220.117188 182.839844 L 220.117188 191.839844 L 154.867188 191.839844 Z M 154.867188 182.839844 " clip-rule="nonzero"/></clipPath></defs><path fill="#fff2e7" d="M 375 187.5 C 375 190.570312 374.925781 193.636719 374.773438 196.699219 C 374.625 199.765625 374.398438 202.824219 374.097656 205.878906 C 373.796875 208.933594 373.421875 211.976562 372.96875 215.011719 C 372.519531 218.046875 371.996094 221.070312 371.398438 224.078125 C 370.796875 227.089844 370.125 230.082031 369.378906 233.058594 C 368.636719 236.035156 367.816406 238.992188 366.925781 241.929688 C 366.035156 244.863281 365.074219 247.777344 364.039062 250.667969 C 363.003906 253.554688 361.902344 256.417969 360.726562 259.253906 C 359.554688 262.089844 358.308594 264.890625 356.996094 267.667969 C 355.6875 270.441406 354.308594 273.179688 352.859375 275.886719 C 351.414062 278.59375 349.902344 281.261719 348.324219 283.894531 C 346.746094 286.527344 345.105469 289.117188 343.402344 291.667969 C 341.695312 294.222656 339.929688 296.730469 338.101562 299.195312 C 336.273438 301.660156 334.386719 304.078125 332.4375 306.449219 C 330.492188 308.820312 328.488281 311.144531 326.429688 313.417969 C 324.367188 315.691406 322.253906 317.914062 320.082031 320.082031 C 317.914062 322.253906 315.691406 324.367188 313.417969 326.429688 C 311.144531 328.488281 308.820312 330.492188 306.449219 332.4375 C 304.078125 334.386719 301.660156 336.273438 299.195312 338.101562 C 296.730469 339.929688 294.222656 341.695312 291.667969 343.402344 C 289.117188 345.105469 286.527344 346.746094 283.894531 348.324219 C 281.261719 349.902344 278.59375 351.414062 275.886719 352.859375 C 273.179688 354.308594 270.441406 355.6875 267.667969 356.996094 C 264.890625 358.308594 262.089844 359.554688 259.253906 360.726562 C 256.417969 361.902344 253.554688 363.003906 250.667969 364.039062 C 247.777344 365.074219 244.863281 366.035156 241.929688 366.925781 C 238.992188 367.816406 236.035156 368.636719 233.058594 369.378906 C 230.082031 370.125 227.089844 370.796875 224.078125 371.398438 C 221.070312 371.996094 218.046875 372.519531 215.011719 372.96875 C 211.976562 373.421875 208.933594 373.796875 205.878906 374.097656 C 202.824219 374.398438 199.765625 374.625 196.699219 374.773438 C 193.636719 374.925781 190.570312 375 187.5 375 C 184.429688 375 181.363281 374.925781 178.300781 374.773438 C 175.234375 374.625 172.175781 374.398438 169.121094 374.097656 C 166.066406 373.796875 163.023438 373.421875 159.988281 372.96875 C 156.953125 372.519531 153.929688 371.996094 150.921875 371.398438 C 147.910156 370.796875 144.917969 370.125 141.941406 369.378906 C 138.964844 368.636719 136.007812 367.816406 133.070312 366.925781 C 130.136719 366.035156 127.222656 365.074219 124.332031 364.039062 C 121.445312 363.003906 118.582031 361.902344 115.746094 360.726562 C 112.910156 359.554688 110.105469 358.308594 107.332031 356.996094 C 104.558594 355.6875 101.820312 354.308594 99.113281 352.859375 C 96.40625 351.414062 93.738281 349.902344 91.105469 348.324219 C 88.472656 346.746094 85.882812 345.105469 83.332031 343.402344 C 80.777344 341.695312 78.269531 339.929688 75.804688 338.101562 C 73.339844 336.273438 70.921875 334.386719 68.550781 332.4375 C 66.179688 330.492188 63.855469 328.488281 61.582031 326.429688 C 59.308594 324.367188 57.085938 322.253906 54.917969 320.082031 C 52.746094 317.914062 50.632812 315.691406 48.570312 313.417969 C 46.511719 311.144531 44.507812 308.820312 42.558594 306.449219 C 40.613281 304.078125 38.726562 301.660156 36.898438 299.195312 C 35.070312 296.730469 33.304688 294.222656 31.597656 291.667969 C 29.894531 289.117188 28.253906 286.527344 26.675781 283.894531 C 25.097656 281.261719 23.585938 278.59375 22.140625 275.886719 C 20.691406 273.179688 19.3125 270.441406 18.003906 267.667969 C 16.691406 264.890625 15.445312 262.089844 14.273438 259.253906 C 13.097656 256.417969 11.996094 253.554688 10.960938 250.667969 C 9.925781 247.777344 8.964844 244.863281 8.074219 241.929688 C 7.183594 238.992188 6.363281 236.035156 5.621094 233.058594 C 4.875 230.082031 4.203125 227.089844 3.601562 224.078125 C 3.003906 221.070312 2.480469 218.046875 2.03125 215.011719 C 1.578125 211.976562 1.203125 208.933594 0.902344 205.878906 C 0.601562 202.824219 0.375 199.765625 0.226562 196.699219 C 0.0742188 193.636719 0 190.570312 0 187.5 C 0 184.429688 0.0742188 181.363281 0.226562 178.300781 C 0.375 175.234375 0.601562 172.175781 0.902344 169.121094 C 1.203125 166.066406 1.578125 163.023438 2.03125 159.988281 C 2.480469 156.953125 3.003906 153.929688 3.601562 150.921875 C 4.203125 147.910156 4.875 144.917969 5.621094 141.941406 C 6.363281 138.964844 7.183594 136.007812 8.074219 133.070312 C 8.964844 130.136719 9.925781 127.222656 10.960938 124.332031 C 11.996094 121.445312 13.097656 118.582031 14.273438 115.746094 C 15.445312 112.910156 16.691406 110.105469 18.003906 107.332031 C 19.3125 104.558594 20.691406 101.820312 22.140625 99.113281 C 23.585938 96.40625 25.097656 93.738281 26.675781 91.105469 C 28.253906 88.472656 29.894531 85.882812 31.597656 83.332031 C 33.304688 80.777344 35.070312 78.269531 36.898438 75.804688 C 38.726562 73.339844 40.613281 70.921875 42.558594 68.550781 C 44.507812 66.179688 46.511719 63.855469 48.570312 61.582031 C 50.632812 59.308594 52.746094 57.085938 54.917969 54.917969 C 57.085938 52.746094 59.308594 50.632812 61.582031 48.570312 C 63.855469 46.511719 66.179688 44.507812 68.550781 42.558594 C 70.921875 40.613281 73.339844 38.726562 75.804688 36.898438 C 78.269531 35.070312 80.777344 33.304688 83.332031 31.597656 C 85.882812 29.894531 88.472656 28.253906 91.105469 26.675781 C 93.738281 25.097656 96.40625 23.585938 99.113281 22.140625 C 101.820312 20.691406 104.558594 19.3125 107.332031 18.003906 C 110.105469 16.691406 112.910156 15.445312 115.746094 14.273438 C 118.582031 13.097656 121.445312 11.996094 124.332031 10.960938 C 127.222656 9.925781 130.136719 8.964844 133.070312 8.074219 C 136.007812 7.183594 138.964844 6.363281 141.941406 5.617188 C 144.917969 4.875 147.910156 4.203125 150.921875 3.601562 C 153.929688 3.003906 156.953125 2.480469 159.988281 2.03125 C 163.023438 1.578125 166.066406 1.203125 169.121094 0.902344 C 172.175781 0.601562 175.234375 0.375 178.300781 0.226562 C 181.363281 0.0742188 184.429688 0 187.5 0 C 190.570312 0 193.636719 0.0742188 196.699219 0.226562 C 199.765625 0.375 202.824219 0.601562 205.878906 0.902344 C 208.933594 1.203125 211.976562 1.578125 215.011719 2.03125 C 218.046875 2.480469 221.070312 3.003906 224.078125 3.601562 C 227.089844 4.203125 230.082031 4.875 233.058594 5.617188 C 236.035156 6.363281 238.992188 7.183594 241.929688 8.074219 C 244.863281 8.964844 247.777344 9.925781 250.667969 10.960938 C 253.554688 11.996094 256.417969 13.097656 259.253906 14.273438 C 262.089844 15.445312 264.890625 16.691406 267.667969 18.003906 C 270.441406 19.3125 273.179688 20.691406 275.886719 22.140625 C 278.59375 23.585938 281.261719 25.097656 283.894531 26.675781 C 286.527344 28.253906 289.117188 29.894531 291.667969 31.597656 C 294.222656 33.304688 296.730469 35.070312 299.195312 36.898438 C 301.660156 38.726562 304.078125 40.613281 306.449219 42.558594 C 308.820312 44.507812 311.144531 46.511719 313.417969 48.570312 C 315.691406 50.632812 317.914062 52.746094 320.082031 54.917969 C 322.253906 57.085938 324.367188 59.308594 326.429688 61.582031 C 328.488281 63.855469 330.492188 66.179688 332.441406 68.550781 C 334.386719 70.921875 336.273438 73.339844 338.101562 75.804688 C 339.929688 78.269531 341.695312 80.777344 343.402344 83.332031 C 345.105469 85.882812 346.746094 88.472656 348.324219 91.105469 C 349.902344 93.738281 351.414062 96.40625 352.859375 99.113281 C 354.308594 101.820312 355.6875 104.558594 356.996094 107.332031 C 358.308594 110.105469 359.554688 112.910156 360.726562 115.746094 C 361.902344 118.582031 363.003906 121.445312 364.039062 124.332031 C 365.074219 127.222656 366.035156 130.136719 366.925781 133.070312 C 367.816406 136.007812 368.636719 138.964844 369.378906 141.941406 C 370.125 144.917969 370.796875 147.910156 371.398438 150.921875 C 371.996094 153.929688 372.519531 156.953125 372.96875 159.988281 C 373.421875 163.023438 373.796875 166.066406 374.097656 169.121094 C 374.398438 172.175781 374.625 175.234375 374.773438 178.300781 C 374.925781 181.363281 375 184.429688 375 187.5 Z M 375 187.5 " fill-opacity="1" fill-rule="nonzero"/><path fill="#fcc2af" d="M 255.050781 185.148438 C 255.050781 186.273438 255.023438 187.398438 254.964844 188.523438 C 254.910156 189.648438 254.824219 190.769531 254.714844 191.886719 C 254.601562 193.007812 254.460938 194.125 254.292969 195.238281 C 254.125 196.347656 253.929688 197.457031 253.707031 198.5625 C 253.484375 199.664062 253.234375 200.761719 252.957031 201.851562 C 252.679688 202.945312 252.375 204.027344 252.042969 205.105469 C 251.710938 206.179688 251.351562 207.25 250.96875 208.308594 C 250.582031 209.367188 250.171875 210.417969 249.734375 211.457031 C 249.296875 212.496094 248.832031 213.523438 248.34375 214.539062 C 247.855469 215.558594 247.34375 216.5625 246.804688 217.554688 C 246.265625 218.546875 245.703125 219.523438 245.113281 220.488281 C 244.527344 221.457031 243.914062 222.40625 243.28125 223.339844 C 242.644531 224.277344 241.988281 225.195312 241.308594 226.097656 C 240.625 227.003906 239.921875 227.890625 239.199219 228.757812 C 238.472656 229.628906 237.726562 230.480469 236.960938 231.3125 C 236.191406 232.148438 235.40625 232.960938 234.597656 233.757812 C 233.789062 234.554688 232.960938 235.328125 232.113281 236.085938 C 231.265625 236.839844 230.402344 237.574219 229.519531 238.289062 C 228.636719 239 227.734375 239.695312 226.816406 240.363281 C 225.898438 241.035156 224.964844 241.679688 224.015625 242.304688 C 223.0625 242.929688 222.097656 243.535156 221.117188 244.113281 C 220.136719 244.691406 219.144531 245.246094 218.136719 245.773438 C 217.128906 246.304688 216.105469 246.8125 215.074219 247.292969 C 214.042969 247.773438 212.996094 248.226562 211.941406 248.660156 C 210.886719 249.089844 209.820312 249.496094 208.742188 249.875 C 207.667969 250.253906 206.582031 250.605469 205.488281 250.929688 C 204.394531 251.257812 203.292969 251.558594 202.183594 251.832031 C 201.074219 252.105469 199.960938 252.351562 198.839844 252.570312 C 197.71875 252.789062 196.59375 252.984375 195.464844 253.148438 C 194.332031 253.3125 193.199219 253.449219 192.0625 253.5625 C 190.925781 253.671875 189.785156 253.753906 188.644531 253.808594 C 187.5 253.863281 186.359375 253.890625 185.214844 253.890625 C 184.074219 253.890625 182.929688 253.863281 181.789062 253.808594 C 180.648438 253.753906 179.507812 253.671875 178.371094 253.5625 C 177.234375 253.449219 176.101562 253.3125 174.96875 253.148438 C 173.839844 252.984375 172.714844 252.789062 171.59375 252.570312 C 170.472656 252.351562 169.355469 252.105469 168.25 251.832031 C 167.140625 251.558594 166.039062 251.257812 164.945312 250.933594 C 163.851562 250.605469 162.765625 250.253906 161.691406 249.875 C 160.613281 249.496094 159.546875 249.089844 158.492188 248.660156 C 157.4375 248.226562 156.390625 247.773438 155.359375 247.292969 C 154.324219 246.8125 153.304688 246.304688 152.296875 245.773438 C 151.289062 245.246094 150.296875 244.691406 149.316406 244.113281 C 148.335938 243.535156 147.371094 242.929688 146.417969 242.304688 C 145.46875 241.679688 144.535156 241.035156 143.617188 240.363281 C 142.699219 239.695312 141.796875 239 140.914062 238.289062 C 140.03125 237.574219 139.167969 236.839844 138.320312 236.085938 C 137.472656 235.328125 136.644531 234.554688 135.835938 233.757812 C 135.027344 232.960938 134.242188 232.148438 133.472656 231.3125 C 132.707031 230.480469 131.960938 229.628906 131.234375 228.757812 C 130.507812 227.890625 129.808594 227.003906 129.125 226.097656 C 128.445312 225.195312 127.789062 224.277344 127.152344 223.339844 C 126.515625 222.40625 125.90625 221.457031 125.320312 220.488281 C 124.730469 219.523438 124.167969 218.546875 123.628906 217.554688 C 123.089844 216.5625 122.578125 215.558594 122.089844 214.539062 C 121.597656 213.523438 121.136719 212.496094 120.699219 211.457031 C 120.261719 210.417969 119.851562 209.367188 119.464844 208.308594 C 119.082031 207.25 118.722656 206.179688 118.390625 205.105469 C 118.058594 204.027344 117.753906 202.945312 117.476562 201.851562 C 117.199219 200.761719 116.949219 199.664062 116.726562 198.5625 C 116.503906 197.457031 116.308594 196.347656 116.140625 195.238281 C 115.972656 194.125 115.832031 193.007812 115.71875 191.886719 C 115.609375 190.769531 115.523438 189.648438 115.46875 188.523438 C 115.410156 187.398438 115.382812 186.273438 115.382812 185.148438 C 115.382812 184.023438 115.410156 182.902344 115.46875 181.777344 C 115.523438 180.652344 115.609375 179.53125 115.71875 178.414062 C 115.832031 177.292969 115.972656 176.175781 116.140625 175.0625 C 116.308594 173.949219 116.503906 172.84375 116.726562 171.738281 C 116.949219 170.636719 117.199219 169.539062 117.476562 168.445312 C 117.753906 167.355469 118.058594 166.273438 118.390625 165.195312 C 118.722656 164.117188 119.082031 163.050781 119.464844 161.992188 C 119.851562 160.933594 120.261719 159.882812 120.699219 158.84375 C 121.136719 157.804688 121.597656 156.777344 122.089844 155.757812 C 122.578125 154.742188 123.089844 153.738281 123.628906 152.746094 C 124.167969 151.753906 124.730469 150.773438 125.320312 149.808594 C 125.90625 148.84375 126.515625 147.894531 127.152344 146.960938 C 127.789062 146.023438 128.445312 145.105469 129.125 144.199219 C 129.808594 143.296875 130.507812 142.410156 131.234375 141.539062 C 131.960938 140.671875 132.707031 139.820312 133.472656 138.984375 C 134.242188 138.152344 135.027344 137.335938 135.835938 136.542969 C 136.644531 135.746094 137.472656 134.972656 138.320312 134.214844 C 139.167969 133.460938 140.03125 132.726562 140.914062 132.011719 C 141.796875 131.296875 142.699219 130.605469 143.617188 129.9375 C 144.535156 129.265625 145.46875 128.617188 146.417969 127.992188 C 147.371094 127.367188 148.335938 126.765625 149.316406 126.1875 C 150.296875 125.609375 151.289062 125.054688 152.296875 124.523438 C 153.304688 123.996094 154.324219 123.488281 155.359375 123.007812 C 156.390625 122.527344 157.4375 122.070312 158.492188 121.640625 C 159.546875 121.210938 160.613281 120.804688 161.691406 120.425781 C 162.765625 120.046875 163.851562 119.695312 164.945312 119.367188 C 166.039062 119.042969 167.140625 118.742188 168.25 118.46875 C 169.355469 118.195312 170.472656 117.949219 171.59375 117.730469 C 172.714844 117.507812 173.839844 117.316406 174.96875 117.152344 C 176.101562 116.988281 177.234375 116.851562 178.371094 116.738281 C 179.507812 116.628906 180.648438 116.546875 181.789062 116.492188 C 182.929688 116.4375 184.074219 116.410156 185.214844 116.410156 C 186.359375 116.410156 187.5 116.4375 188.644531 116.492188 C 189.785156 116.546875 190.925781 116.628906 192.0625 116.738281 C 193.199219 116.847656 194.332031 116.988281 195.464844 117.152344 C 196.59375 117.316406 197.71875 117.507812 198.839844 117.730469 C 199.960938 117.949219 201.074219 118.195312 202.183594 118.46875 C 203.292969 118.742188 204.394531 119.042969 205.488281 119.367188 C 206.582031 119.695312 207.667969 120.046875 208.742188 120.425781 C 209.820312 120.804688 210.886719 121.210938 211.941406 121.640625 C 212.996094 122.070312 214.042969 122.527344 215.074219 123.007812 C 216.105469 123.488281 217.128906 123.996094 218.136719 124.523438 C 219.144531 125.054688 220.136719 125.609375 221.117188 126.1875 C 222.097656 126.765625 223.0625 127.367188 224.015625 127.992188 C 224.964844 128.617188 225.898438 129.265625 226.816406 129.9375 C 227.734375 130.605469 228.636719 131.296875 229.519531 132.011719 C 230.402344 132.726562 231.265625 133.460938 232.113281 134.214844 C 232.960938 134.972656 233.789062 135.746094 234.597656 136.542969 C 235.40625 137.335938 236.191406 138.152344 236.960938 138.984375 C 237.726562 139.820312 238.472656 140.671875 239.199219 141.539062 C 239.921875 142.410156 240.625 143.296875 241.308594 144.199219 C 241.988281 145.105469 242.644531 146.023438 243.28125 146.960938 C 243.914062 147.894531 244.527344 148.84375 245.113281 149.808594 C 245.703125 150.773438 246.265625 151.753906 246.804688 152.746094 C 247.34375 153.738281 247.855469 154.742188 248.34375 155.757812 C 248.832031 156.777344 249.296875 157.804688 249.734375 158.84375 C 250.171875 159.882812 250.582031 160.933594 250.96875 161.992188 C 251.351562 163.050781 251.710938 164.117188 252.042969 165.195312 C 252.375 166.273438 252.679688 167.355469 252.957031 168.445312 C 253.234375 169.539062 253.484375 170.636719 253.707031 171.738281 C 253.929688 172.84375 254.125 173.949219 254.292969 175.0625 C 254.460938 176.175781 254.601562 177.292969 254.714844 178.414062 C 254.824219 179.53125 254.910156 180.652344 254.964844 181.777344 C 255.023438 182.902344 255.050781 184.023438 255.050781 185.148438 Z M 255.050781 185.148438 " fill-opacity="0.25" fill-rule="nonzero"/><g clip-path="url(#fdfbcb89ff)"><path stroke-linecap="round" transform="matrix(9.314733, 0, 0, 8.999999, 154.889716, 182.838036)" fill="none" stroke-linejoin="miter" d="M 0.499978 0.500201 L 6.499797 0.500201 " stroke="#e27639" stroke-width="1" stroke-opacity="1" stroke-miterlimit="4"/></g></svg>