<svg width="14" height="14" viewBox="0 0 14 14" fill="none" xmlns="http://www.w3.org/2000/svg">
<path d="M3.9375 0C4.05353 0 4.16481 0.0460936 4.24686 0.128141C4.32891 0.210188 4.375 0.321468 4.375 0.4375V1.75H9.625V0.4375C9.625 0.321468 9.67109 0.210188 9.75314 0.128141C9.83519 0.0460936 9.94647 0 10.0625 0C10.1785 0 10.2898 0.0460936 10.3719 0.128141C10.4539 0.210188 10.5 0.321468 10.5 0.4375V1.75H12.1042C12.6677 1.75 13.125 2.20733 13.125 2.77083V12.1042C13.125 12.3749 13.0174 12.6346 12.826 12.826C12.6346 13.0174 12.3749 13.125 12.1042 13.125H1.89583C1.62509 13.125 1.36544 13.0174 1.174 12.826C0.982552 12.6346 0.875 12.3749 0.875 12.1042V2.77083C0.875 2.20733 1.33233 1.75 1.89583 1.75H3.5V0.4375C3.5 0.321468 3.54609 0.210188 3.62814 0.128141C3.71019 0.0460936 3.82147 0 3.9375 0ZM12.25 5.54167H1.75V12.1042C1.75 12.1847 1.81533 12.25 1.89583 12.25H12.1042C12.1428 12.25 12.1799 12.2346 12.2073 12.2073C12.2346 12.1799 12.25 12.1428 12.25 12.1042V5.54167ZM1.89583 2.625C1.85716 2.625 1.82006 2.64036 1.79271 2.66771C1.76536 2.69506 1.75 2.73216 1.75 2.77083V4.66667H12.25V2.77083C12.25 2.73216 12.2346 2.69506 12.2073 2.66771C12.1799 2.64036 12.1428 2.625 12.1042 2.625H1.89583Z" fill="#C1BDC1"/>
</svg>
