<svg width="22" height="25" viewBox="0 0 22 25" fill="none" xmlns="http://www.w3.org/2000/svg">
<g id="File_dock_light">
<path id="Vector 55" d="M7.65039 13.3057L13.9504 13.3057" stroke="#D0D1D2" stroke-width="1.06579" stroke-linecap="round"/>
<path id="Vector 58" d="M7.65039 16.3057L11.2504 16.3057" stroke="#D0D1D2" stroke-width="1.06579" stroke-linecap="round"/>
<path id="Rectangle 4152" d="M4.94922 6.86356C4.94922 5.96821 4.94922 5.52054 5.12346 5.17856C5.27674 4.87775 5.5213 4.63318 5.82211 4.47991C6.16409 4.30566 6.61177 4.30566 7.50711 4.30566H11.01C11.4295 4.30566 11.6392 4.30566 11.8349 4.35592C12.0083 4.40045 12.173 4.4738 12.3221 4.57291C12.4904 4.68473 12.6307 4.84062 12.9113 5.15242L15.9926 8.57608C16.2354 8.84591 16.3569 8.98082 16.4435 9.13455C16.5203 9.2709 16.5766 9.41778 16.6107 9.5705C16.6492 9.74269 16.6492 9.9242 16.6492 10.2872V18.7478C16.6492 19.6431 16.6492 20.0908 16.475 20.4328C16.3217 20.7336 16.0771 20.9781 15.7763 21.1314C15.4343 21.3057 14.9867 21.3057 14.0913 21.3057H7.50711C6.61176 21.3057 6.16409 21.3057 5.82211 21.1314C5.5213 20.9781 5.27674 20.7336 5.12346 20.4328C4.94922 20.0908 4.94922 19.6431 4.94922 18.7478V6.86356Z" stroke="#D0D1D2" stroke-width="1.5"/>
<path id="Vector 317" d="M11.25 4.30566V7.74777C11.25 8.64312 11.25 9.09079 11.4242 9.43277C11.5775 9.73358 11.8221 9.97815 12.1229 10.1314C12.4649 10.3057 12.9125 10.3057 13.8079 10.3057H16.65" stroke="#D0D1D2" stroke-width="1.5"/>
</g>
</svg>
