<svg width="24" height="25" viewBox="0 0 24 25" fill="none" xmlns="http://www.w3.org/2000/svg">
<g id="Finance" clip-path="url(#clip0_2036_13425)">
<path id="Vector" d="M21.7413 13.9118C20.3968 13.4245 18.9052 13.5328 17.644 14.2081L15.5881 15.1329C15.422 14.1861 14.6948 13.4745 13.7972 13.4472C13.7919 13.447 10.7146 13.4123 10.7146 13.4123C8.25154 12.7367 6.65113 13.6048 5.73816 14.4604C5.55144 14.6354 5.38724 14.8156 5.24272 14.9933C4.99636 14.7279 4.56149 14.657 4.24436 14.8314L1.45098 16.3669C1.08867 16.5661 0.931031 17.003 1.08298 17.3872L3.81293 24.2883C3.99231 24.7417 4.5436 24.9421 4.97375 24.7057L7.76713 23.1702C8.02898 23.0262 8.18313 22.758 8.1916 22.4754H12.3607C13.0408 22.4754 13.7122 22.2968 14.3023 21.9588C14.3023 21.9588 22.1433 17.461 22.1876 17.4208C23.2856 16.4219 23.3195 14.4836 21.7413 13.9118C22.3709 14.1399 20.3968 13.4245 21.7413 13.9118ZM4.99872 22.8185L2.87749 17.4561L4.21924 16.7186L6.34047 22.0809L4.99872 22.8185ZM21.1384 16.152L13.4843 20.5353C13.1427 20.7309 12.7541 20.8343 12.3606 20.8343H7.61457L6.02103 16.8059C6.15754 16.5277 6.42642 16.0662 6.86308 15.657C7.75739 14.8189 8.93616 14.6045 10.3669 15.0196C10.4384 15.0403 10.5125 15.0513 10.5869 15.0521L13.7502 15.0877C13.831 15.0947 13.9801 15.2742 13.9801 15.5464C13.9801 15.8266 13.8261 16.0053 13.7456 16.0053H10.6375V17.6464H13.7456C14.1306 17.6464 14.4889 17.5162 14.7872 17.2932L18.3462 15.6922C18.365 15.6837 18.3835 15.6746 18.4016 15.6647C19.2554 15.2005 20.2683 15.1238 21.1805 15.4544C21.5415 15.5853 21.2807 16.0075 21.1384 16.152ZM16.1994 12.6304C12.9395 12.6304 10.2874 9.97813 10.2874 6.71802C10.2874 3.45797 12.9395 0.805664 16.1994 0.805664C19.4593 0.805664 22.1113 3.45797 22.1113 6.71802C22.1113 9.97813 19.4592 12.6304 16.1994 12.6304ZM16.1994 2.44679C13.8459 2.44679 11.9312 4.36284 11.9312 6.71802C11.9312 9.0732 13.846 10.9893 16.1994 10.9893C18.5529 10.9893 20.4676 9.07315 20.4676 6.71802C20.4676 4.3629 18.5529 2.44679 16.1994 2.44679Z" fill="#D0D1D2"/>
<path id="Vector_2" d="M16.5806 6.04871C15.927 5.7803 15.8764 5.66497 15.8764 5.53127C15.8764 5.44589 15.9188 5.24738 16.3114 5.24738C16.6705 5.24738 17.118 5.44897 17.4336 5.65671L17.8726 4.50594C17.5592 4.3064 17.1783 4.13497 16.8221 4.08015V3.33179H15.6515V4.15297C14.9562 4.37215 14.5277 4.92804 14.5277 5.62004C14.5277 6.53656 15.2609 6.94574 15.9771 7.22466C16.5493 7.45486 16.5972 7.63107 16.5972 7.7782C16.5972 8.00451 16.3887 8.15071 16.0659 8.15071C15.645 8.15071 15.1557 7.90794 14.813 7.6423L14.3906 8.81153C14.74 9.0824 15.1444 9.26117 15.5994 9.32789V10.1033H16.7772V9.25922C17.4944 9.03086 17.9533 8.43676 17.9533 7.7264C17.9533 6.73204 17.2198 6.30753 16.5806 6.04871Z" fill="#D0D1D2"/>
</g>
<defs>
<clipPath id="clip0_2036_13425">
<rect width="24" height="24" fill="white" transform="translate(0 0.805664)"/>
</clipPath>
</defs>
</svg>
