<svg width="24" height="25" viewBox="0 0 24 25" fill="none" xmlns="http://www.w3.org/2000/svg">
<g id="Frame" clip-path="url(#clip0_2036_13451)">
<path id="Vector" d="M13 19.8057H19V10.7837L12 5.33969L5 10.7837V19.8057H11V13.8057H13V19.8057ZM21 20.8057C21 21.0709 20.8946 21.3253 20.7071 21.5128C20.5196 21.7003 20.2652 21.8057 20 21.8057H4C3.73478 21.8057 3.48043 21.7003 3.29289 21.5128C3.10536 21.3253 3 21.0709 3 20.8057V10.2957C2.99989 10.1433 3.03462 9.99291 3.10152 9.85599C3.16841 9.71907 3.26572 9.59926 3.386 9.50569L11.386 3.28369C11.5615 3.14714 11.7776 3.073 12 3.073C12.2224 3.073 12.4385 3.14714 12.614 3.28369L20.614 9.50569C20.7343 9.59926 20.8316 9.71907 20.8985 9.85599C20.9654 9.99291 21.0001 10.1433 21 10.2957V20.8057Z" fill="#D0D1D2"/>
</g>
<defs>
<clipPath id="clip0_2036_13451">
<rect width="24" height="24" fill="white" transform="translate(0 0.805664)"/>
</clipPath>
</defs>
</svg>
